<?xml version="1.0" encoding="utf-8"?>
<!-- Generator: Adobe Illustrator 25.3.1, SVG Export Plug-In . SVG Version: 6.00 Build 0)  -->
<svg version="1.1" id="Laag_1" xmlns="http://www.w3.org/2000/svg" xmlns:xlink="http://www.w3.org/1999/xlink" x="0px" y="0px"
	 viewBox="0 0 300 82.8" style="enable-background:new 0 0 300 82.8;" xml:space="preserve">
<style type="text/css">
	.st0{fill:#3C3C3B;}
	.st1{fill:#1D1D1B;}
	.st2{fill-rule:evenodd;clip-rule:evenodd;fill:#00A1E1;}
	.st3{fill:#FFFFFF;}
	.st4{fill-rule:evenodd;clip-rule:evenodd;fill:#FFFFFF;}
	.st5{fill:#A2D5EE;}
	.st6{fill:url(#SVGID_1_);}
</style>
<path class="st0" d="M282.6,14L250.4,10l-2.2,18.3v32.4l46.4,5.6l3.8-31.2L282.6,14C282.6,14,282.6,14,282.6,14z"/>
<polygon class="st1" points="244.3,60.3 248.1,60.8 248.1,28.4 "/>
<path class="st2" d="M-0.1,0.2h246.7v82.4H-0.1V0.2z"/>
<g>
	<g>
		<path class="st3" d="M53.3,7.4C52,7.1,50.8,7,49.5,7c-4.6,0-9.1,0-13.7,0c-0.4,0-0.5,0.1-0.5,0.5c0,14.7,0,29.4,0,44.1
			c0,0.4,0.1,0.5,0.5,0.5c2.9,0,5.8,0,8.6,0c0.4,0,0.6-0.1,0.6-0.6c0-6.3,0-12.7,0-19c0-1.3,0-1.3,1.3-1.2c1.6,0.1,2.3,0.7,2.6,2.3
			c0.2,0.8,0.2,1.6,0.2,2.4c0,5.2,0,10.3,0,15.5c0,0.5,0.1,0.6,0.6,0.6c2.8,0,5.7,0,8.5,0c0.4,0,0.6-0.1,0.6-0.6
			c0-5.4,0-10.8,0-16.2c0-0.9-0.1-1.9-0.2-2.8c-0.3-1.9-1.2-3.3-3.2-3.9c0,0-0.1,0-0.2-0.1c2-0.5,3.1-1.7,3.7-3.5
			c0.4-1.2,0.6-2.4,0.6-3.7c0.1-2.6,0.2-5.1-0.4-7.7C58.4,10.4,56.5,8.2,53.3,7.4z M50.2,21c-0.4,1.4-1.4,2.1-3,2.1
			c-0.6,0-1.1,0-1.7,0c-0.3,0-0.4-0.1-0.4-0.4c0-1.2,0-2.4,0-3.6c0-1.2,0-2.4,0-3.5c0-0.3,0.1-0.4,0.4-0.4c0.7,0,1.4,0,2.1,0.1
			c1.2,0.1,2,0.7,2.4,1.8C50.5,18.3,50.5,19.7,50.2,21z M87.9,14.9c-0.8-4.1-3.1-6.9-7.2-8c-3.1-0.8-6.1-0.8-9.2,0
			c-3.6,1-5.9,3.3-7,6.8c-0.5,1.7-0.7,3.5-0.7,5.3c0,7.2,0,14.4,0,21.6c0,1,0,1.9,0.2,2.9c0.6,3.8,2.6,6.7,6.2,8.1
			c4,1.6,8.2,1.5,12.2-0.1c2.6-1.1,4.4-3,5.4-5.7c0.5-1.3,0.6-2.6,0.6-4c0-3.9,0-7.8,0-11.7c0-3.7,0-7.5,0-11.2
			C88.3,17.5,88.2,16.2,87.9,14.9z M78.6,40.1c0,0.7-0.1,1.5-0.3,2.2c-0.3,0.9-0.9,1.5-1.9,1.5c-1,0.1-1.8-0.3-2.3-1.3
			c-0.5-0.9-0.6-2-0.6-3c0-6.9,0-13.8,0-20.6c0-0.9,0.1-1.8,0.3-2.7c0.4-1.2,1.1-1.7,2.4-1.7c1.2,0,1.8,0.6,2.1,1.8
			c0.2,0.9,0.3,1.8,0.3,2.7c0,3.4,0,6.7,0,10.1C78.6,32.7,78.6,36.4,78.6,40.1z M239.3,51.5c-2.2-8.2-4.4-16.3-6.6-24.5
			c-0.1-0.4-0.1-0.8,0-1.2c1.7-6.1,3.3-12.2,5-18.3c0.1-0.4,0.1-0.5-0.3-0.5c-2.9,0-5.9,0-8.8,0c-0.3,0-0.4,0.1-0.5,0.4
			c-1.2,4-2.4,8.1-3.6,12.1c-0.3,1.1-0.6,2.2-1,3.2c0,0-0.1,0-0.1,0c0-5.1,0-10.1,0-15.2c0-0.4-0.1-0.5-0.5-0.5c-2.9,0-5.8,0-8.7,0
			c-0.4,0-0.5,0.1-0.5,0.5c0,14.7,0,29.3,0,44c0,0.4,0.1,0.5,0.5,0.5c2.9,0,5.7,0,8.6,0c0.5,0,0.6-0.1,0.6-0.6c0-7.1,0-14.2,0-21.2
			v-0.5c0.2,0.2,0.2,0.3,0.2,0.5c1.9,7.1,3.8,14.2,5.6,21.3c0.1,0.4,0.3,0.6,0.7,0.6c3,0,5.9,0,8.9,0C239.5,52,239.5,52,239.3,51.5z
			 M208.9,32.3c-2.9,0-5.8,0-8.8,0c-0.4,0-0.5,0.1-0.5,0.5c0,2.5,0,5,0,7.5c0,0.8,0,1.6-0.4,2.3c-0.4,0.9-1.1,1.4-2.1,1.4
			c-1,0-1.8-0.4-2.2-1.4c-0.1-0.3-0.3-0.7-0.3-1.1c-0.1-0.9-0.1-1.8-0.1-2.7c0-6.5,0-13,0-19.6c0-0.8,0-1.6,0.1-2.3
			c0.3-1.8,1.4-2.5,3.3-2.2c0.7,0.1,1.1,0.6,1.4,1.3c0.3,0.8,0.3,1.6,0.4,2.4c0,1.7,0,3.5,0,5.2c0,0.4,0.1,0.5,0.5,0.5
			c2.9,0,5.8,0,8.8,0c0.4,0,0.5-0.1,0.5-0.5c0-1.8,0-3.7,0-5.5c0-1.3-0.1-2.6-0.4-3.9c-0.7-3.2-2.4-5.6-5.5-6.9
			c-1.3-0.6-2.7-0.9-4.1-1c-2.8-0.2-5.6-0.1-8.2,1c-2.7,1.1-4.8,2.9-5.6,5.9c-0.4,1.4-0.6,2.9-0.6,4.3c0,3.9,0,7.7,0,11.6h0
			c0,3.2,0,6.4,0,9.6c0,1.7,0.1,3.4,0.3,5c0.6,3.8,2.6,6.5,6.2,7.9c3.6,1.3,7.3,1.3,11,0.2c2.7-0.8,4.7-2.6,5.9-5.1
			c0.8-1.8,1.1-3.6,1.2-5.6c0-2.8,0-5.6,0-8.4C209.4,32.4,209.3,32.3,208.9,32.3z M182.2,51.2c-0.4-2.6-0.8-5.2-1.1-7.8
			c-0.5-3.7-1.1-7.5-1.6-11.2c-0.6-4-1.1-7.9-1.7-11.9c-0.6-4.3-1.2-8.6-1.8-12.8c-0.1-0.4-0.2-0.5-0.5-0.5c-2,0-4,0-6,0
			c-2,0-4,0-6,0c-0.4,0-0.5,0.1-0.6,0.5c-0.4,3-0.8,6-1.2,8.9c-0.4,3.2-0.9,6.4-1.3,9.7c-0.4,3.3-0.9,6.5-1.3,9.8
			c-0.4,3.2-0.9,6.4-1.3,9.7c-0.3,2-0.5,4-0.8,6.1c-0.1,0.4,0,0.5,0.4,0.5c2.8,0,5.6,0,8.4,0c0.3,0,0.5,0,0.5-0.5
			c0.2-1.9,0.4-3.7,0.6-5.6c0-0.3,0.1-0.4,0.4-0.4c1.4,0,2.8,0,4.2,0c0.7,0,0.7,0,0.7,0.7c0.1,1.7,0.3,3.5,0.4,5.2
			c0,0.4,0.2,0.5,0.6,0.5c2.8,0,5.7,0,8.5,0c0.6,0,0.6,0,0.5-0.6C182.2,51.3,182.2,51.3,182.2,51.2z M170.8,37c-0.9,0-1.8,0-2.7,0
			c-0.3,0-0.4-0.1-0.4-0.4c0.2-2.2,0.4-4.4,0.6-6.5c0.3-2.9,0.6-5.8,0.8-8.8c0.1-0.8,0.2-1.6,0.2-2.5c0,0,0.1,0,0.1,0
			c0.1,1.5,0.3,3,0.4,4.5c0.3,2.6,0.5,5.2,0.8,7.8c0.2,1.8,0.3,3.6,0.5,5.4C171.2,36.9,171.1,37.1,170.8,37z M151.2,8.2
			c-1.8-1-3.7-1.3-5.7-1.3c-4.5,0-8.9,0-13.4,0c-0.5,0-0.6,0.1-0.6,0.6c0,7.3,0,14.6,0,21.9c0,7.3,0,14.6,0,22
			c0,0.5,0.1,0.6,0.6,0.6c2.8,0,5.7,0,8.5,0c0.7,0,0.6,0.1,0.6-0.6c0-6.5,0-12.9,0-19.4c0-0.5,0.1-0.6,0.6-0.5c2,0,4,0,5.9,0
			c4.2-0.1,7.2-2.8,7.8-6.9c0.5-3.2,0.5-6.5,0.1-9.7C155.2,11.9,153.7,9.7,151.2,8.2z M146,20.8c-0.2,1.5-1.8,2.2-2.9,2.3
			c-0.5,0-1,0-1.6,0c-0.3,0-0.4-0.1-0.4-0.4c0-1.2,0-2.3,0-3.5s0-2.3,0-3.5c0-0.3,0.1-0.4,0.4-0.4c0.8,0,1.6,0,2.3,0.1
			c1.1,0.2,1.8,0.8,2,1.9C146.2,18.5,146.2,19.6,146,20.8z M27.5,8.7C25.6,7.4,23.4,7,21.1,7c-4.5,0-8.9,0-13.4,0
			c-0.5,0-0.6,0.1-0.6,0.6c0,7.3,0,14.6,0,21.9c0,7.3,0,14.6,0,21.9c0,0.5,0.1,0.6,0.6,0.6c2.8,0,5.7,0,8.5,0c0.4,0,0.6-0.1,0.6-0.6
			c0-6.5,0-13,0-19.5c0-0.4,0.1-0.5,0.5-0.5c2,0,4,0,6,0c4.2-0.1,7.2-2.8,7.8-7c0.4-3.2,0.4-6.4,0.1-9.6
			C30.9,12.2,29.7,10.1,27.5,8.7z M21.6,21c-0.2,1.2-1.7,1.9-2.7,2c-0.6,0.1-1.2,0-1.8,0c-0.3,0-0.3-0.1-0.3-0.3c0-1.2,0-2.4,0-3.6
			c0-1.1,0-2.3,0-3.4c0-0.4,0.1-0.4,0.4-0.4c0.8,0,1.6,0,2.4,0.1c1,0.2,1.6,0.8,1.8,1.7C21.8,18.4,21.8,19.7,21.6,21z M112.3,6.9
			c-6.2,0-12.3,0-18.5,0c-0.5,0-0.6,0.1-0.6,0.6c0,7.3,0,14.6,0,22c0,7.3,0,14.6,0,22c0,0.4,0.1,0.6,0.5,0.5c2.9,0,5.7,0,8.6,0
			c0.5,0,0.6-0.1,0.6-0.6c0-6.5,0-13,0-19.5c0-0.4,0.1-0.6,0.5-0.5c2.9,0,5.8,0,8.7,0c0.4,0,0.5-0.1,0.5-0.5c0-2.5,0-5,0-7.6
			c0-0.4-0.1-0.5-0.5-0.5c-2.9,0-5.8,0-8.8,0c-0.4,0-0.5-0.1-0.5-0.5c0-2,0-4.1,0-6.1c0-0.4,0.1-0.5,0.5-0.5c3,0,5.9,0,8.9,0
			c0.4,0,0.5-0.1,0.5-0.5c0-2.6,0-5.1,0-7.7C112.9,7.1,112.7,6.9,112.3,6.9z M126.1,7.4c0-0.4-0.1-0.5-0.5-0.5c-2.9,0-5.8,0-8.7,0
			c-0.4,0-0.5,0.1-0.5,0.5c0,14.7,0,29.3,0,44c0,0.4,0.1,0.5,0.5,0.5c2.9,0,5.7,0,8.6,0c0.5,0,0.5-0.2,0.5-0.6c0-7.3,0-14.6,0-22
			C126.1,22.1,126.1,14.8,126.1,7.4z"/>
	</g>
</g>
<path class="st4" d="M7.1,59.2V59h232.3v0.2H7.1z"/>
<g>
	<g>
		<path class="st3" d="M253.7,46.5c-1.8-0.3-3.3,0.9-3.6,2.6c-0.3,1.7,0.9,3.3,2.7,3.6c1.8,0.3,3.4-0.9,3.6-2.6
			C256.7,48.3,255.5,46.7,253.7,46.5z M271.1,47.6l-3.9-13.4l-5.5-0.8l-3.1,19.9L264,54l1.5-10.3l4.4,11.2l5.5,0.8l3.1-19.9
			l-5.4-0.8L271.1,47.6z M284.6,52.4l2.4-15.3l-5.4-0.8l-3.1,19.9l10.1,1.5l0.7-4.6L284.6,52.4z"/>
	</g>
</g>
<g>
	<path class="st5" d="M13.5,77.3h-1.6L7.6,64.1h2.1l3,9.6l3-9.6h2.1L13.5,77.3z"/>
	<path class="st5" d="M19.7,77.3V64.1h8.4v1.8h-6.4v3.9h5.5v1.8h-5.5v4h6.4v1.8H19.7z"/>
	<path class="st5" d="M38.1,77.3l-2.8-5.6h-2.5v5.6h-2V64.1H36c2.5,0,4.1,1.6,4.1,3.9c0,1.9-1.1,3.1-2.6,3.5l3,5.8H38.1z M35.8,65.9
		h-3V70h3c1.3,0,2.2-0.8,2.2-2.1C38,66.7,37.1,65.9,35.8,65.9z"/>
	<path class="st5" d="M48,72.1h-3v5.2h-2V64.1h5c2.6,0,4.2,1.7,4.2,4C52.2,70.4,50.6,72.1,48,72.1z M47.9,65.9H45v4.4h2.9
		c1.4,0,2.3-0.8,2.3-2.2C50.2,66.7,49.3,65.9,47.9,65.9z"/>
	<path class="st5" d="M61.3,77.3l-0.9-2.7h-5.2l-0.9,2.7h-2.1L57,64.1h1.6l4.8,13.2H61.3z M57.8,67.1L55.8,73h4.1L57.8,67.1z"/>
	<path class="st5" d="M73.2,77.3l-3.7-6.5l-2.2,2.7v3.8h-2V64.1h2v6.6l5.4-6.6h2.4l-4.3,5.2l4.7,8H73.2z"/>
	<path class="st5" d="M85.4,77.3l-3.7-6.5l-2.2,2.7v3.8h-2V64.1h2v6.6l5.4-6.6h2.4L83,69.3l4.7,8H85.4z"/>
	<path class="st5" d="M89.7,77.3V64.1h2v13.2H89.7z"/>
	<path class="st5" d="M103.2,77.3L97.1,68v9.3h-2V64.1H97l6.1,9.3v-9.3h2v13.2H103.2z"/>
	<path class="st5" d="M116.4,75.9c-1,1.1-2.2,1.5-3.6,1.5c-1.4,0-2.6-0.5-3.5-1.4c-1.3-1.3-1.3-2.8-1.3-5.3c0-2.5,0-4,1.3-5.3
		c0.9-0.9,2.1-1.4,3.5-1.4c2.8,0,4.4,1.8,4.8,4.1h-2c-0.3-1.4-1.3-2.3-2.8-2.3c-0.8,0-1.5,0.3-1.9,0.8c-0.6,0.7-0.8,1.4-0.8,4.1
		c0,2.7,0.1,3.4,0.8,4.1c0.5,0.5,1.2,0.8,1.9,0.8c0.9,0,1.6-0.3,2.1-0.9c0.5-0.6,0.7-1.2,0.7-2.1v-0.7h-2.8v-1.7h4.8v2
		C117.6,73.9,117.3,75,116.4,75.9z"/>
	<path class="st5" d="M124,77.4c-2,0-3.4-0.5-4.7-1.7l1.3-1.3c1,1,2,1.3,3.4,1.3c1.7,0,2.7-0.7,2.7-2c0-0.6-0.2-1.1-0.5-1.4
		c-0.3-0.3-0.7-0.4-1.4-0.6l-1.6-0.2c-1.1-0.1-1.9-0.5-2.5-1.1c-0.6-0.6-1-1.4-1-2.5c0-2.3,1.7-3.9,4.4-3.9c1.7,0,3,0.4,4.1,1.5
		l-1.3,1.3c-0.8-0.8-1.8-1-2.9-1c-1.6,0-2.4,0.9-2.4,2.1c0,0.5,0.1,0.9,0.5,1.2c0.3,0.3,0.9,0.5,1.5,0.6l1.5,0.2
		c1.2,0.2,1.9,0.5,2.5,1c0.7,0.6,1.1,1.6,1.1,2.7C128.8,76,126.8,77.4,124,77.4z"/>
	<path class="st5" d="M141.1,77.3v-8.8l-3,6.4h-1.5l-3.1-6.4v8.8h-2V64.1h2l3.9,8.2l3.8-8.2h2v13.2H141.1z"/>
	<path class="st5" d="M154.1,77.3l-0.9-2.7H148l-0.9,2.7H145l4.8-13.2h1.6l4.8,13.2H154.1z M150.7,67.1l-2.1,5.9h4.1L150.7,67.1z"/>
	<path class="st5" d="M161.5,65.9v11.4h-2V65.9h-3.6v-1.8h9.3v1.8H161.5z"/>
	<path class="st5" d="M167.4,77.3V64.1h8.4v1.8h-6.4v3.9h5.5v1.8h-5.5v4h6.4v1.8H167.4z"/>
	<path class="st5" d="M185.8,77.3l-2.8-5.6h-2.5v5.6h-2V64.1h5.1c2.5,0,4.1,1.6,4.1,3.9c0,1.9-1.1,3.1-2.6,3.5l3,5.8H185.8z
		 M183.5,65.9h-3V70h3c1.3,0,2.2-0.8,2.2-2.1C185.8,66.7,184.9,65.9,183.5,65.9z"/>
	<path class="st5" d="M190.7,77.3V64.1h2v13.2H190.7z"/>
	<path class="st5" d="M203.7,77.3l-0.9-2.7h-5.2l-0.9,2.7h-2.1l4.8-13.2h1.6l4.8,13.2H203.7z M200.3,67.1l-2.1,5.9h4.1L200.3,67.1z"
		/>
	<path class="st5" d="M207.7,77.3V64.1h2v11.4h6.4v1.8H207.7z"/>
	<path class="st5" d="M218.4,77.3V64.1h8.4v1.8h-6.4v3.9h5.5v1.8h-5.5v4h6.4v1.8H218.4z"/>
	<path class="st5" d="M237.6,77.3l-6.1-9.3v9.3h-2V64.1h1.8l6.1,9.3v-9.3h2v13.2H237.6z"/>
</g>
<path class="st1" d="M283.5,28.8c-0.1,0.3-0.7,3.6-0.7,3.6s7.9-0.1,15.6,2.9l-11-6.8L283.5,28.8z"/>
<linearGradient id="SVGID_1_" gradientUnits="userSpaceOnUse" x1="278.463" y1="34.0306" x2="294.7139" y2="21.3101">
	<stop  offset="0.2539" style="stop-color:#FFFFFF"/>
	<stop  offset="0.9467" style="stop-color:#1D1D1B"/>
</linearGradient>
<path class="st6" d="M282.6,14l15.8,21.3c0,0-13.6-5.7-17-5.1C281.3,30.2,283.9,24,282.6,14z"/>
</svg>
